<mxfile host="65bd71144e">
    <diagram id="pIaEtrtLPv3HG8r1JEND" name="Page-1">
        <mxGraphModel dx="908" dy="661" grid="1" gridSize="10" guides="1" tooltips="1" connect="1" arrows="1" fold="1" page="1" pageScale="1" pageWidth="850" pageHeight="1100" math="0" shadow="0">
            <root>
                <mxCell id="0"/>
                <mxCell id="1" parent="0"/>
                <mxCell id="2" value="" style="rounded=0;whiteSpace=wrap;html=1;" parent="1" vertex="1">
                    <mxGeometry x="80" y="80" width="400" height="300" as="geometry"/>
                </mxCell>
                <mxCell id="3" value="volume of a sphere" style="rounded=0;whiteSpace=wrap;html=1;" parent="1" vertex="1">
                    <mxGeometry x="80" y="80" width="400" height="40" as="geometry"/>
                </mxCell>
                <mxCell id="6" value="Calculate" style="labelPosition=center;verticalLabelPosition=middle;align=center;html=1;shape=mxgraph.basic.button;dx=10;" parent="1" vertex="1">
                    <mxGeometry x="100" y="240" width="100" height="40" as="geometry"/>
                </mxCell>
                <mxCell id="7" value="&lt;div class=&quot;lr-fy-eq-elem eiuJYe&quot; style=&quot;display: inline-block ; position: relative ; transition: all 0.05s ease-in-out 0s ; margin-left: 5px ; vertical-align: middle ; margin-top: 0px ; margin-bottom: 0px&quot;&gt;&lt;div class=&quot;lr-fy-eq-elem&quot; style=&quot;display: inline-block ; position: relative ; transition: all 0.05s ease-in-out 0s ; font-size: 15px&quot;&gt;&lt;div class=&quot;lr-fy-eq-elem&quot; style=&quot;display: inline-block ; position: relative ; transition: all 0.05s ease-in-out 0s ; text-align: center ; vertical-align: middle ; font-size: 15px&quot;&gt;&lt;div class=&quot;lr-fy-ecv lr-fy-eq-elem&quot; style=&quot;display: inline-block ; position: relative ; transition: all 0.05s ease-in-out 0s ; font-size: 15px&quot;&gt;&lt;div style=&quot;font-size: 15px&quot;&gt;&lt;div class=&quot;lr-fy-ecl lr-fy-eq-elem&quot; style=&quot;display: inline-block ; position: relative ; transition: all 0.05s ease-in-out 0s ; font-style: italic ; color: rgb(189 , 193 , 198) ; font-family: &amp;#34;stixgeneral&amp;#34; , &amp;#34;georgia&amp;#34; ; background-color: rgb(32 , 33 , 36) ; margin-right: 10px ; margin-top: 0px ; margin-bottom: 0px&quot;&gt;V&lt;/div&gt;&lt;div class=&quot;lr-fy-eq-elem lr-fy-eq-add&quot; style=&quot;display: inline-block ; position: relative ; transition: all 0.05s ease-in-out 0s ; color: rgb(189 , 193 , 198) ; font-family: &amp;#34;stixgeneral&amp;#34; , &amp;#34;georgia&amp;#34; ; background-color: rgb(32 , 33 , 36) ; margin-left: 0.2em ; margin-right: 0.2em&quot;&gt;=&lt;/div&gt;&lt;div class=&quot;lr-fy-eq-elem eiuJYe&quot; style=&quot;display: inline-block ; position: relative ; transition: all 0.05s ease-in-out 0s ; color: rgb(189 , 193 , 198) ; font-family: &amp;#34;stixgeneral&amp;#34; , &amp;#34;georgia&amp;#34; ; background-color: rgb(32 , 33 , 36) ; margin-left: 5px ; vertical-align: middle ; margin-top: 0px ; margin-bottom: 0px&quot;&gt;&lt;div class=&quot;lr-fy-eq-elem&quot; style=&quot;display: inline-block ; position: relative ; transition: all 0.05s ease-in-out 0s ; font-size: 15px&quot;&gt;&lt;div class=&quot;lr-fy-eq-elem&quot; style=&quot;display: inline-block ; position: relative ; transition: all 0.05s ease-in-out 0s ; text-align: center ; vertical-align: middle ; font-size: 15px&quot;&gt;&lt;div class=&quot;lr-fy-ecv lr-fy-eq-elem&quot; style=&quot;display: inline-block ; position: relative ; transition: all 0.05s ease-in-out 0s ; font-family: &amp;#34;stixgeneral&amp;#34; , &amp;#34;times&amp;#34; , &amp;#34;times new roman&amp;#34; , serif ; font-size: 15px&quot;&gt;4&lt;/div&gt;&lt;div class=&quot;lr-fy-eq-add&quot; style=&quot;width: 13.4943px ; height: 1px ; background-color: rgb(232 , 234 , 237) ; margin-top: 2px ; margin-bottom: 2px ; font-size: 15px&quot;&gt;&lt;/div&gt;&lt;div class=&quot;lr-fy-ecv lr-fy-eq-elem&quot; style=&quot;display: inline-block ; position: relative ; transition: all 0.05s ease-in-out 0s ; font-family: &amp;#34;stixgeneral&amp;#34; , &amp;#34;times&amp;#34; , &amp;#34;times new roman&amp;#34; , serif ; font-size: 15px&quot;&gt;3&lt;/div&gt;&lt;/div&gt;&lt;div class=&quot;lr-fy-eq-elem lr-fy-eq-add&quot; style=&quot;display: inline-block ; position: relative ; transition: all 0.05s ease-in-out 0s ; margin-left: 0.2em ; font-size: 15px&quot;&gt;&lt;/div&gt;&lt;div class=&quot;lr-fy-ecl lr-fy-eq-elem&quot; style=&quot;display: inline-block ; position: relative ; transition: all 0.05s ease-in-out 0s ; font-style: italic ; font-size: 15px&quot;&gt;Ï€&lt;/div&gt;&lt;/div&gt;&lt;div class=&quot;lr-fy-eq-elem lr-fy-eq-add&quot; style=&quot;display: inline-block ; position: relative ; transition: all 0.05s ease-in-out 0s ; margin-left: 0.2em ; font-size: 15px&quot;&gt;&lt;/div&gt;&lt;div class=&quot;lr-fy-eq-elem&quot; style=&quot;display: inline-block ; position: relative ; transition: all 0.05s ease-in-out 0s ; font-size: 15px&quot;&gt;&lt;div class=&quot;lr-fy-el lr-fy-eq-elem&quot; style=&quot;display: inline-block ; position: relative ; transition: all 0.05s ease-in-out 0s ; margin: -4px ; padding: 4px ; font-style: italic ; cursor: pointer ; font-size: 15px&quot;&gt;r&lt;/div&gt;&lt;div class=&quot;lr-fy-ecv lr-fy-eq-elem&quot; style=&quot;display: inline-block ; position: relative ; transition: all 0.05s ease-in-out 0s ; font-family: &amp;#34;stixgeneral&amp;#34; , &amp;#34;times&amp;#34; , &amp;#34;times new roman&amp;#34; , serif ; margin-left: 0.15em ; vertical-align: top ; font-size: 15px&quot;&gt;3&lt;/div&gt;&lt;/div&gt;&lt;/div&gt;&lt;br&gt;&lt;/div&gt;&lt;/div&gt;&lt;br style=&quot;font-size: 15px&quot;&gt;&lt;/div&gt;&lt;/div&gt;&lt;/div&gt;" style="text;html=1;strokeColor=none;fillColor=none;align=center;verticalAlign=middle;whiteSpace=wrap;rounded=0;" vertex="1" parent="1">
                    <mxGeometry x="80" y="120" width="110" height="70" as="geometry"/>
                </mxCell>
                <mxCell id="8" value="radius" style="text;html=1;strokeColor=none;fillColor=none;align=center;verticalAlign=middle;whiteSpace=wrap;rounded=0;fontSize=15;" vertex="1" parent="1">
                    <mxGeometry x="80" y="190" width="60" height="30" as="geometry"/>
                </mxCell>
                <mxCell id="9" value="" style="rounded=0;whiteSpace=wrap;html=1;fontSize=15;" vertex="1" parent="1">
                    <mxGeometry x="160" y="195" width="120" height="20" as="geometry"/>
                </mxCell>
                <mxCell id="10" value="" style="whiteSpace=wrap;html=1;aspect=fixed;fontSize=15;" vertex="1" parent="1">
                    <mxGeometry x="340" y="155" width="100" height="100" as="geometry"/>
                </mxCell>
                <mxCell id="11" value="Actor" style="shape=umlActor;verticalLabelPosition=bottom;verticalAlign=top;html=1;outlineConnect=0;fontSize=15;" vertex="1" parent="1">
                    <mxGeometry x="375" y="175" width="30" height="60" as="geometry"/>
                </mxCell>
            </root>
        </mxGraphModel>
    </diagram>
</mxfile>